<svg xmlns="http://www.w3.org/2000/svg" viewBox="0 0 64 64" fill="none">
  <!-- Gear/cog partial shape - yellow -->
  <path d="M6 30 L10 26 L8 20 L14 18 L14 12 L20 12 L22 6 L28 10 L32 6 L36 12 L32 16 L26 16 L22 14 L18 16 L16 22 L18 26 L16 32 L20 36 L26 36 L30 34" fill="#f1b32d"/>
  <!-- Inner gear circle cutout -->
  <circle cx="22" cy="24" r="6" fill="#f1b32d" opacity="0"/>
  <path d="M16 24a6 6 0 0 1 12 0a6 6 0 0 1-12 0" fill="#ffffff" fill-opacity="0"/>
  <!-- Rising bars - navy -->
  <rect x="24" y="26" width="6" height="12" rx="1" fill="#0a2a43"/>
  <rect x="32" y="20" width="6" height="18" rx="1" fill="#0a2a43"/>
  <rect x="40" y="14" width="6" height="24" rx="1" fill="#0a2a43"/>
  <rect x="48" y="8" width="6" height="30" rx="1" fill="#0a2a43"/>
  <!-- Swoosh curve - navy -->
  <path d="M6 48 Q20 56 40 48 Q52 42 58 44" stroke="#0a2a43" stroke-width="5" stroke-linecap="round" fill="none"/>
  <!-- Swoosh arrow tip -->
  <path d="M55 38 L58 44 L52 44" fill="#0a2a43"/>
</svg>
