<?xml version="1.0" encoding="UTF-8"?>
<svg version="1.1" xmlns="http://www.w3.org/2000/svg" width="1536" height="1024">
<path d="M0 0 C506.88 0 1013.76 0 1536 0 C1536 337.92 1536 675.84 1536 1024 C1029.12 1024 522.24 1024 0 1024 C0 686.08 0 348.16 0 0 Z " fill="#0B2047" transform="translate(0,0)"/>
<path d="M0 0 C20.79 0 41.58 0 63 0 C63 15.84 63 31.68 63 48 C84.78 48 106.56 48 129 48 C129 62.19 129 76.38 129 91 C150.78 91 172.56 91 195 91 C195 189.34 195 287.68 195 389 C155.07 389 115.14 389 74 389 C74 309.14 74 229.28 74 147 C69.71 147 65.42 147 61 147 C61 226.86 61 306.72 61 389 C40.87 389 20.74 389 0 389 C0 260.63 0 132.26 0 0 Z " fill="#F6F7F7" transform="translate(748,180)"/>
<path d="M0 0 C18.15 0 36.3 0 55 0 C55 58.41 55 116.82 55 177 C48.73 177.99 42.46 178.98 36 180 C3.60704448 186.26579067 -26.65159377 201.4429384 -50.796875 223.94921875 C-52.87836844 225.88677913 -55.0162636 227.72689365 -57.1875 229.5625 C-86.18320049 254.96991021 -106.74859279 298.756576 -110 337 C-110.05034909 339.09854989 -110.07772293 341.19773727 -110.0859375 343.296875 C-110.09657227 344.37638428 -110.10720703 345.45589355 -110.11816406 346.56811523 C-110.12264109 348.69294631 -110.08701757 350.81832798 -110.00683594 352.94165039 C-110.00780504 355.87196124 -110.08992766 358.21145981 -111 361 C-113.71242607 363.39714149 -116.68814998 364.61169924 -120 366 C-128.03155791 371.77708552 -133.04959088 378.24795442 -135 388 C-198.36 388 -261.72 388 -327 388 C-327 368.86 -327 349.72 -327 330 C-319.18474693 327.39491564 -311.6543807 325.06910143 -303.6875 323.1875 C-294.35852181 320.92401807 -285.18946819 318.31653021 -276.02319336 315.4699707 C-268.39488058 313.10306359 -260.73714345 310.98700225 -253 309 C-249.87388157 308.19176033 -246.7490936 307.37852966 -243.625 306.5625 C-242.4342688 306.25252075 -242.4342688 306.25252075 -241.21948242 305.9362793 C-234.91146896 304.27836699 -228.6576477 302.46236909 -222.43017578 300.52368164 C-219.08411529 299.50458318 -216.54145644 299 -213 299 C-212.88914062 297.7109375 -212.77828125 296.421875 -212.6640625 295.09375 C-212.09794642 290.03618338 -210.84496149 285.36058466 -209.375 280.5 C-208.8217363 278.62795261 -208.26970256 276.75554137 -207.71875 274.8828125 C-207.43257813 273.91375977 -207.14640625 272.94470703 -206.8515625 271.94628906 C-206.02143942 269.07417744 -205.23684418 266.19394899 -204.46875 263.3046875 C-201.04052614 250.48676141 -197.0608794 237.91854503 -192.75 225.375 C-192.48765564 224.61016296 -192.22531128 223.84532593 -191.95501709 223.05731201 C-191.1981711 220.85703779 -190.4363555 218.65856969 -189.671875 216.4609375 C-189.44708466 215.81084717 -189.22229431 215.16075684 -188.99069214 214.4909668 C-187.8830546 211.33393079 -186.6905804 208.24728056 -185.33642578 205.18994141 C-183.85156409 202.19189669 -183.85156409 202.19189669 -183.9453125 199.5 C-185.54420471 195.71003327 -188.12089512 193.01625197 -190.875 190 C-192.06579841 188.66207591 -193.2558908 187.32352314 -194.4453125 185.984375 C-195.04375977 185.31599609 -195.64220703 184.64761719 -196.25878906 183.95898438 C-198.80359197 181.0959027 -201.28193743 178.17924604 -203.75 175.25 C-204.19819092 174.71987305 -204.64638184 174.18974609 -205.1081543 173.64355469 C-208.00482667 170.20849695 -210.85407444 166.737293 -213.6875 163.25 C-217.65474152 158.37330058 -221.77905431 153.65799184 -226 149 C-221.67889308 143.77697979 -217.09742534 139.10065522 -212.125 134.5 C-211.38612549 133.81075439 -210.64725098 133.12150879 -209.88598633 132.41137695 C-208.35088186 130.9794289 -206.81449653 129.5488528 -205.27685547 128.11962891 C-202.40990841 125.45065674 -199.55688933 122.76707939 -196.70385742 120.08325195 C-189.52152839 113.33052342 -182.27738251 106.65002195 -175 100 C-165.65221311 91.45473181 -165.65221311 91.45473181 -156.61328125 82.5859375 C-152.02142317 78.07190752 -147.03815581 74.00088844 -142 70 C-136.35207977 74.52270595 -130.82357894 79.09892732 -125.5 84 C-117.70591051 91.16033329 -109.48563653 97.68646377 -101 104 C-99.84886719 103.443125 -98.69773437 102.88625 -97.51171875 102.3125 C-95.90375863 101.5414314 -94.29567896 100.77061207 -92.6875 100 C-91.56698242 99.45666016 -91.56698242 99.45666016 -90.42382812 98.90234375 C-75.60756257 91.82412781 -60.4267753 85.87436324 -44.87353516 80.63476562 C-42.23415835 79.74465753 -39.59937838 78.84182703 -36.96484375 77.9375 C-24.80090188 73.78939889 -12.75802693 69.82257528 0 68 C0 45.56 0 23.12 0 0 Z " fill="#F7B519" transform="translate(676,181)"/>
<path d="M0 0 C4.16585985 3.49302338 8.08660742 7.22943197 12 11 C12.64582031 11.58265625 13.29164063 12.1653125 13.95703125 12.765625 C33.40311965 30.79993649 43.80603698 59.03130429 45 85 C45.13809218 90.00830744 45.13275804 95.01001343 45.03710938 100.01904297 C45.00540058 101.71170835 44.99291442 103.40471543 44.984375 105.09765625 C43.08359281 155.53626944 11.03816158 204.15866906 -21 241 C-21.61230469 241.71285156 -22.22460938 242.42570312 -22.85546875 243.16015625 C-33.18105227 255.10447733 -43.89739959 266.95279398 -55.9296875 277.20703125 C-58.3827411 279.33146824 -60.74703147 281.54188637 -63.125 283.75 C-68.91592316 289.02972443 -75.0163898 293.83453459 -81.21923828 298.61767578 C-82.94776411 299.95945166 -84.66169073 301.31756862 -86.37109375 302.68359375 C-98.24015276 312.15439352 -110.41650282 321.35975288 -123.33984375 329.3515625 C-126.36473054 331.22601511 -129.33439714 333.17710274 -132.3125 335.125 C-170.79486178 359.92699969 -211.42483623 379.21413577 -254.35716248 394.88294983 C-257.49252156 396.03391315 -260.57032893 397.24722807 -263.63549805 398.57592773 C-266.59139605 399.82705269 -269.42966767 400.80117652 -272.51953125 401.6484375 C-273.53144531 401.92880859 -274.54335938 402.20917969 -275.5859375 402.49804688 C-276.65070313 402.78744141 -277.71546875 403.07683594 -278.8125 403.375 C-281.0794858 403.99718195 -283.34641269 404.61957853 -285.61328125 405.2421875 C-287.26577881 405.69416504 -287.26577881 405.69416504 -288.95166016 406.15527344 C-291.46952538 406.85299999 -293.9768423 407.57360664 -296.48046875 408.3203125 C-329.93168661 418.22908819 -366.07047515 424.64711051 -401 425 C-402.05848145 425.01901367 -403.11696289 425.03802734 -404.20751953 425.05761719 C-451.76249718 425.8635218 -502.11406872 420.51236786 -543 394 C-543.55768066 393.6400293 -544.11536133 393.28005859 -544.68994141 392.90917969 C-566.50213066 378.63768821 -581.88491379 360.43925622 -593 337 C-593.78890625 335.35257813 -593.78890625 335.35257813 -594.59375 333.671875 C-608.32812524 301.68083024 -602.29465285 265.29348498 -590 234 C-584.48717382 220.41893634 -577.0983817 208.17926581 -569 196 C-568.38439209 195.0730835 -568.38439209 195.0730835 -567.75634766 194.12744141 C-566.83967624 192.7502201 -565.92021411 191.37485671 -565 190 C-564.34 190.33 -563.68 190.66 -563 191 C-563.53109375 192.03898438 -564.0621875 193.07796875 -564.609375 194.1484375 C-578.84326459 222.15488645 -587.84036275 253.37791421 -577.93359375 284.33203125 C-568.95650351 309.30789617 -550.85928788 326.50599162 -527.3828125 338.00390625 C-515.21455222 343.67601855 -502.55984566 347.97486109 -489.37841797 350.53076172 C-487.75365559 350.85131123 -486.13285543 351.19245257 -484.51611328 351.55126953 C-468.51364055 355.05634734 -452.6859327 355.37685267 -436.375 355.375 C-434.83755127 355.37771912 -434.83755127 355.37771912 -433.26904297 355.38049316 C-412.3680506 355.37631631 -391.61489775 354.01822684 -371 350.5 C-370.26871887 350.37805267 -369.53743774 350.25610535 -368.78399658 350.13046265 C-344.42396855 346.02759461 -319.23517989 340.53876399 -296.08883667 331.78468323 C-293.55909948 330.83437324 -291.01668548 329.92052836 -288.47239685 329.00999451 C-268.78914358 321.95986126 -249.78788471 314.19625974 -231 305 C-229.47281976 304.26398354 -227.94549554 303.5282657 -226.41796875 302.79296875 C-203.17312304 291.49151397 -180.92807322 278.19642807 -159.82470703 263.28662109 C-158.04471078 262.03152606 -156.25581475 260.79014715 -154.46484375 259.55078125 C-145.91232966 253.58899223 -137.83122209 247.12186606 -129.79980469 240.47949219 C-128.23507176 239.19323587 -126.65405777 237.92683539 -125.0703125 236.6640625 C-109.58680621 224.30482454 -94.7602113 210.17203145 -82 195 C-81.21753906 194.10667969 -80.43507813 193.21335937 -79.62890625 192.29296875 C-62.40048247 172.51976387 -48.07900899 150.77529859 -37 127 C-36.46890625 125.87851562 -35.9378125 124.75703125 -35.390625 123.6015625 C-30.91879137 113.71281701 -27.78541461 103.47478859 -25 93 C-24.81775879 92.32243652 -24.63551758 91.64487305 -24.44775391 90.94677734 C-22.15396119 82.04777457 -21.73467536 73.3959542 -21.6875 64.25 C-21.67904053 62.70566284 -21.67904053 62.70566284 -21.67041016 61.13012695 C-21.765557 51.05020581 -23.00850133 41.33952801 -26.75 31.9375 C-27.14795776 30.92091309 -27.14795776 30.92091309 -27.55395508 29.88378906 C-37.02956033 6.22702496 -55.16495553 -8.32597859 -78.20703125 -18.24951172 C-90.04248237 -23.20351182 -102.35156731 -25.24918202 -115 -27 C-115 -27.33 -115 -27.66 -115 -28 C-76.20379298 -33.88534694 -31.42794106 -24.05069031 0 0 Z " fill="#F7F7F7" transform="translate(1142,357)"/>
<path d="M0 0 C0 58.08 0 116.16 0 176 C-41.58 176 -83.16 176 -126 176 C-128.01431588 164.58554333 -129.57589286 154.35324905 -129.5 142.9375 C-129.49856995 142.23199005 -129.49713989 141.5264801 -129.4956665 140.79959106 C-129.29638719 100.69097091 -112.12210156 66.32422647 -83.94213867 38.40063477 C-62.6632619 18.00362161 -30.15056709 0 0 0 Z " fill="#F7B419" transform="translate(731,393)"/>
<path d="M0 0 C25.08 0 50.16 0 76 0 C76 61.71 76 123.42 76 187 C50.92 187 25.84 187 0 187 C0 125.29 0 63.58 0 0 Z " fill="#F8F7F8" transform="translate(958,382)"/>
<path d="M0 0 C0.99 0.33 1.98 0.66 3 1 C1.42687016 2.8223088 -0.15736799 4.63236793 -1.75 6.4375 C-2.41515625 7.2119043 -2.41515625 7.2119043 -3.09375 8.00195312 C-5.52915356 10.74178213 -7.24061317 12.65743905 -11 13 C-7.61227103 8.30840284 -4.21814817 3.9700218 0 0 Z " fill="#1E2B42" transform="translate(619,409)"/>
<path d="M0 0 C0.66 0.33 1.32 0.66 2 1 C-2.81776765 11.92710706 -2.81776765 11.92710706 -8 14 C-6.6744419 10.37723685 -5.05653045 7.36494652 -2.875 4.1875 C-2.33617187 3.39730469 -1.79734375 2.60710938 -1.2421875 1.79296875 C-0.83226562 1.20128906 -0.42234375 0.60960937 0 0 Z " fill="#D2D8E3" transform="translate(577,547)"/>
<path d="M0 0 C0.33 0.99 0.66 1.98 1 3 C0.0390625 4.68359375 0.0390625 4.68359375 -1.375 6.4375 C-2.96646217 8.424605 -3.92400079 9.65551178 -4.4765625 12.16015625 C-4.64929688 12.76730469 -4.82203125 13.37445313 -5 14 C-5.99 14.33 -6.98 14.66 -8 15 C-7.35256333 11.17009294 -5.54688763 8.4716102 -3.4375 5.25 C-2.79683594 4.26515625 -2.15617188 3.2803125 -1.49609375 2.265625 C-1.00238281 1.51796875 -0.50867188 0.7703125 0 0 Z " fill="#1E2B45" transform="translate(597,435)"/>
<path d="M0 0 C0.66 0.33 1.32 0.66 2 1 C-5.11389522 9.81548975 -5.11389522 9.81548975 -10 11 C-6.79239749 7.19364503 -3.59253891 3.45436433 0 0 Z " fill="#D7A51C" transform="translate(478,302)"/>
<path d="M0 0 C0.66 0 1.32 0 2 0 C1.67 2.64 1.34 5.28 1 8 C0.34 8 -0.32 8 -1 8 C-0.67 5.36 -0.34 2.72 0 0 Z " fill="#D3A21B" transform="translate(464,471)"/>
</svg>
